<?xml version="1.0" encoding="iso-8859-1"?>
<!-- Generator: Adobe Illustrator 17.1.0, SVG Export Plug-In . SVG Version: 6.00 Build 0)  -->
<!DOCTYPE svg PUBLIC "-//W3C//DTD SVG 1.0//EN" "http://www.w3.org/TR/2001/REC-SVG-20010904/DTD/svg10.dtd">
<svg version="1.0" xmlns="http://www.w3.org/2000/svg" xmlns:xlink="http://www.w3.org/1999/xlink" x="0px" y="0px" width="25px"
   height="25px" viewBox="0 0 110 110" style="enable-background:new 0 0 110 110;" xml:space="preserve">
<g id="Artboard" style="display:none;">

    <rect x="-1206.5" y="-41.5" style="display:inline;fill:#808080;stroke:#000000;stroke-miterlimit:10;" width="1352" height="321"/>
</g>
<g id="Red">
  <g style="display:inline;">
    <g>
      <circle style="fill:#7D261E;" cx="55" cy="55.016" r="32"/>
    </g>
    <g>
      <circle style="fill:#FFEFED;" cx="55" cy="55.016" r="26"/>
    </g>
    <g>
      <circle style="fill:#C23023;" cx="55" cy="55.016" r="20"/>
    </g>
    <g>
      <circle style="fill:#E54B44;" cx="55" cy="55.016" r="14"/>
    </g>
    <g>
      <polygon style="fill:#FFEFED;" points="55,40.758 59,51.016 68,51.016 60.163,56.671 63.354,66.503 55,60.438 46.646,66.511
        49.837,56.669 41.92,51.016 51,51.016       "/>
    </g>
    <g>
      <path style="fill:#B84E44;" d="M29,55.016c0-14.359,11.641-26,26-26v-6c-17.673,0-32,14.327-32,32s14.327,32,32,32v-6
        C40.641,81.016,29,69.375,29,55.016z"/>
    </g>
    <g>
      <path style="fill:#FFFFFF;" d="M29,55.016c0,14.359,11.641,26,26,26v-6c-11.046,0-20-8.954-20-20s8.954-20,20-20v-6
        C40.641,29.016,29,40.656,29,55.016z"/>
    </g>
    <g>
      <path style="fill:#E54B44;" d="M46.836,66.373l-0.19,0.138l0.073-0.225C43.257,63.737,41,59.644,41,55.016
        c0-7.697,6.213-13.939,13.897-13.995L55,40.757v-5.741c-11.046,0-20,8.954-20,20s8.954,20,20,20v-6
        C51.949,69.016,49.136,68.029,46.836,66.373z"/>
    </g>
    <g>
      <path style="fill:#FF6C5E;" d="M41.92,51.016H51l3.897-9.995C47.213,41.076,41,47.318,41,55.016c0,4.629,2.257,8.722,5.719,11.27
        l3.118-9.617L41.92,51.016z"/>
    </g>
    <g>
      <path style="fill:#FF6C5E;" d="M46.836,66.373c2.3,1.656,5.113,2.643,8.164,2.643v-8.577L46.836,66.373z"/>
    </g>
    <g>
      <path style="fill:#FFFFFF;" d="M55,41.016c-0.035,0-0.068,0.005-0.103,0.005L51,51.016h-9.08l7.917,5.653l-3.118,9.617
        c0.039,0.028,0.078,0.059,0.117,0.087L55,60.438V41.016z"/>
    </g>
  </g>
</g>
</svg>
